<svg width="23" height="22" viewBox="0 0 23 22" fill="none" xmlns="http://www.w3.org/2000/svg">
<path d="M20.6308 8.41256C20.5731 8.24274 20.467 8.09353 20.3255 7.98335C20.184 7.87316 20.0134 7.80681 19.8346 7.79251L14.6055 7.377L12.3426 2.36798C12.2706 2.20665 12.1534 2.06963 12.0051 1.97344C11.8569 1.87726 11.684 1.82602 11.5073 1.82593C11.3306 1.82583 11.1577 1.87687 11.0094 1.9729C10.861 2.06892 10.7437 2.20582 10.6714 2.36707L8.40862 7.377L3.17947 7.79251C3.00378 7.80642 2.83582 7.87066 2.69568 7.97754C2.55554 8.08442 2.44916 8.2294 2.38926 8.39516C2.32937 8.56091 2.31849 8.74041 2.35794 8.91218C2.39739 9.08395 2.48549 9.24072 2.6117 9.36373L6.47601 13.1308L5.10933 19.0488C5.06783 19.2279 5.08113 19.4154 5.1475 19.5869C5.21388 19.7584 5.33026 19.9059 5.48154 20.0105C5.63283 20.115 5.81204 20.1716 5.99591 20.173C6.17979 20.1744 6.35984 20.1205 6.5127 20.0183L11.507 16.6888L16.5014 20.0183C16.6576 20.1221 16.8419 20.1755 17.0294 20.1713C17.2169 20.1672 17.3986 20.1058 17.5501 19.9953C17.7017 19.8848 17.8158 19.7306 17.877 19.5533C17.9383 19.3761 17.9438 19.1843 17.8928 19.0039L16.2152 13.1336L20.3758 9.38941C20.6482 9.14359 20.7482 8.76019 20.6308 8.41256Z" fill="#F3CD03"/>
</svg>
